<?xml version="1.0" encoding="UTF-8"?>
<svg version="1.1" xmlns="http://www.w3.org/2000/svg" width="500" height="500">
<path d="M0 0 C44.88 0 89.76 0 136 0 C144 19.2 144 19.2 144 25 C144.66 25 145.32 25 146 25 C146 26.98 146 28.96 146 31 C146.66 31 147.32 31 148 31 C148 32.98 148 34.96 148 37 C148.66 37 149.32 37 150 37 C150 38.98 150 40.96 150 43 C150.66 43 151.32 43 152 43 C152 44.32 152 45.64 152 47 C152.66 47 153.32 47 154 47 C154 48.32 154 49.64 154 51 C154.66 51 155.32 51 156 51 C156 52.98 156 54.96 156 57 C156.66 57 157.32 57 158 57 C159.59138085 61.17737474 160.21278058 64.53160785 160 69 C160.66 69 161.32 69 162 69 C162 70.32 162 71.64 162 73 C162.66 73 163.32 73 164 73 C164.84479453 75.37145894 165.67593283 77.74634124 166.5 80.125 C166.73847656 80.79015625 166.97695312 81.4553125 167.22265625 82.140625 C168.62708806 86.23354055 169.27343814 89.61131792 169 94 C169.66 94 170.32 94 171 94 C173.09350689 97.4019487 173.17942163 100.05272412 173 104 C173.66 104 174.32 104 175 104 C181 118.73786408 181 118.73786408 181 124 C181.66 124 182.32 124 183 124 C183.17088135 124.52424561 183.3417627 125.04849121 183.51782227 125.58862305 C185.53356692 131.71073707 187.71424621 137.76314483 189.9375 143.8125 C197.89379163 165.61095766 197.89379163 165.61095766 199 173 C199.66 173 200.32 173 201 173 C201 174.98 201 176.96 201 179 C201.66 179 202.32 179 203 179 C203 180.98 203 182.96 203 185 C203.66 185 204.32 185 205 185 C205 186.65 205 188.3 205 190 C205.66 190 206.32 190 207 190 C208.60355101 193.50776784 209.22036864 196.14354879 209 200 C209.66 200 210.32 200 211 200 C211.84039886 202.58122508 212.67250556 205.16463901 213.5 207.75 C213.73847656 208.47960937 213.97695312 209.20921875 214.22265625 209.9609375 C214.44824219 210.66992188 214.67382812 211.37890625 214.90625 212.109375 C215.11572266 212.75874023 215.32519531 213.40810547 215.54101562 214.07714844 C216 216 216 216 216 220 C216.66 220 217.32 220 218 220 C218 221.65 218 223.3 218 225 C218.66 225 219.32 225 220 225 C220 226.32 220 227.64 220 229 C220.66 229 221.32 229 222 229 C222 230.98 222 232.96 222 235 C222.66 235 223.32 235 224 235 C224 236.98 224 238.96 224 241 C224.66 241 225.32 241 226 241 C226 239.02 226 237.04 226 235 C226.66 235 227.32 235 228 235 C227.9175 234.360625 227.835 233.72125 227.75 233.0625 C228.1145247 228.59707243 230.05237724 224.99088772 232 221 C232.66 221 233.32 221 234 221 C234 219.35 234 217.7 234 216 C234.66 216 235.32 216 236 216 C236 213.36 236 210.72 236 208 C236.66 208 237.32 208 238 208 C238 206.02 238 204.04 238 202 C238.66 202 239.32 202 240 202 C240.33 199.69 240.66 197.38 241 195 C241.66 195 242.32 195 243 195 C243 192.69 243 190.38 243 188 C243.66 188 244.32 188 245 188 C245 186.02 245 184.04 245 182 C245.66 182 246.32 182 247 182 C247 180.35 247 178.7 247 177 C247.66 177 248.32 177 249 177 C248.95875 176.2575 248.9175 175.515 248.875 174.75 C249.00398134 171.91241048 249.57051222 170.41226062 251 168 C251.66 168 252.32 168 253 168 C253 166.35 253 164.7 253 163 C253.66 163 254.32 163 255 163 C255 160.69 255 158.38 255 156 C255.66 156 256.32 156 257 156 C257.12375 154.96875 257.2475 153.9375 257.375 152.875 C257.93889814 149.37883154 258.78682059 146.31602373 260 143 C260.66 143 261.32 143 262 143 C261.92265625 141.72769531 261.92265625 141.72769531 261.84375 140.4296875 C262.0219554 136.51807891 263.02413061 133.74088 264.5 130.125 C264.9640625 128.97257813 265.428125 127.82015625 265.90625 126.6328125 C266.2671875 125.76398438 266.628125 124.89515625 267 124 C267.66 124 268.32 124 269 124 C268.9071875 122.7315625 268.9071875 122.7315625 268.8125 121.4375 C269.03316959 117.39189091 270.33226684 114.66901296 272 111 C272.69140522 108.22111387 272.69140522 108.22111387 273 106 C273.66 106 274.32 106 275 106 C274.938125 105.2575 274.87625 104.515 274.8125 103.75 C275 101 275 101 276.41796875 99.19140625 C278.323552 96.55182056 278.81585876 94.35979777 279.5 91.1875 C280.59192914 86.46921671 281.98849354 82.38874138 284 78 C284.37308631 76.67723944 284.73046415 75.34767923 285 74 C285.66 74 286.32 74 287 74 C287.04898437 73.41992188 287.09796875 72.83984375 287.1484375 72.2421875 C287.59649405 67.56076908 288.298021 63.42514541 290 59 C290.66 59 291.32 59 292 59 C292.103125 58.175 292.20625 57.35 292.3125 56.5 C293.11646056 52.40710988 294.46352158 48.87459775 296 45 C296.66 45 297.32 45 298 45 C298 43.02 298 41.04 298 39 C298.66 39 299.32 39 300 39 C300 37.02 300 35.04 300 33 C300.66 33 301.32 33 302 33 C302 31.35 302 29.7 302 28 C302.66 28 303.32 28 304 28 C304 26.35 304 24.7 304 23 C304.66 23 305.32 23 306 23 C306 21.68 306 20.36 306 19 C306.66 19 307.32 19 308 19 C308 17.35 308 15.7 308 14 C308.66 14 309.32 14 310 14 C310 12.02 310 10.04 310 8 C310.66 8 311.32 8 312 8 C312.33 6.02 312.66 4.04 313 2 C313.66 2 314.32 2 315 2 C315 1.34 315 0.68 315 0 C359.88 0 404.76 0 451 0 C451.02202493 54.7624373 451.04049696 109.52487044 451.05106533 164.28731089 C451.05231611 170.74517016 451.05361043 177.20302942 451.05493164 183.66088867 C451.05532511 185.58944173 451.05532511 185.58944173 451.05572652 187.55695546 C451.06008377 208.40436265 451.06797162 229.25176709 451.0771528 250.09917264 C451.08648781 271.47336185 451.09205529 292.84754962 451.09408849 314.22174078 C451.09546404 327.42220494 451.09981632 340.62266134 451.10791647 353.8231231 C451.11318205 362.86191922 451.11480473 371.9007113 451.11350138 380.93950885 C451.1128577 386.16280035 451.11387881 391.38607826 451.11920547 396.60936737 C451.12403824 401.38290123 451.12433947 406.15641222 451.12089889 410.92994709 C451.12047308 412.66481255 451.12176985 414.39967938 451.12488318 416.1345421 C451.12884519 418.47688438 451.12676464 420.81914208 451.12304783 423.16148281 C451.12342755 424.46734103 451.12380727 425.77319924 451.1241985 427.11862892 C451 430 451 430 450 431 C447.05836976 431.11125442 444.14000124 431.15740169 441.19750977 431.16113281 C440.27398712 431.16609772 439.35046448 431.17106262 438.3989563 431.17617798 C435.3297655 431.19083883 432.26062637 431.19760769 429.19140625 431.203125 C427.06770322 431.2088727 424.94400022 431.21463048 422.82029724 431.22039795 C418.36221066 431.23091877 413.90414218 431.23675452 409.44604492 431.24023438 C403.72120482 431.24572495 397.99660188 431.26976053 392.27183628 431.29820633 C387.88391918 431.31678793 383.49605974 431.32203589 379.10810661 431.32357025 C376.99689371 431.32660686 374.88568205 431.33466904 372.77450752 431.34775543 C369.82678056 431.3647245 366.87964013 431.36295831 363.93188477 431.35644531 C363.0523262 431.3656601 362.17276764 431.37487488 361.26655579 431.3843689 C358.84034729 431.36749268 358.84034729 431.36749268 355 431 C352.93598223 427.90397335 352.75035834 427.27149635 352.75390434 423.77336597 C352.74992225 422.90699412 352.74594015 422.04062227 352.74183738 421.14799672 C352.74766307 420.19567102 352.75348875 419.24334531 352.75949097 418.26216125 C352.75692769 416.74536019 352.75692769 416.74536019 352.75431263 415.19791669 C352.75100614 411.79373866 352.76204057 408.38975571 352.77294922 404.9855957 C352.77351308 402.55168665 352.77319726 400.11777726 352.77206421 397.68386841 C352.77160809 392.43569855 352.77729801 387.18757318 352.78853989 381.93941689 C352.80478324 374.35143683 352.8100017 366.76348083 352.81251587 359.17548528 C352.81689481 346.86494206 352.83020929 334.55442532 352.84912109 322.24389648 C352.86747476 310.28426242 352.88163377 298.32463554 352.89013672 286.36499023 C352.89066217 285.6279905 352.89118761 284.89099076 352.89172898 284.1316577 C352.89433903 280.43440405 352.89686645 276.73715034 352.89935279 273.03989661 C352.92009147 242.35991211 352.95547091 211.67995973 353 181 C352.34 181 351.68 181 351 181 C351 180.34 351 179.68 351 179 C350.34 179 349.68 179 349 179 C348.88785156 179.70511719 348.77570313 180.41023437 348.66015625 181.13671875 C347.93685092 184.27389512 346.80542309 186.90127906 345.4375 189.8125 C344.98246094 190.78832031 344.52742188 191.76414063 344.05859375 192.76953125 C343.70925781 193.50558594 343.35992187 194.24164063 343 195 C342.34 195 341.68 195 341 195 C341.061875 196.36125 341.061875 196.36125 341.125 197.75 C341.00468444 200.8782046 340.6085292 202.38614006 339 205 C338.34 205 337.68 205 337 205 C337 206.98 337 208.96 337 211 C336.34 211 335.68 211 335 211 C334.87625 212.19625 334.7525 213.3925 334.625 214.625 C334.17674946 218.27596813 333.29553163 221.54524899 332 225 C331.34 225 330.68 225 330 225 C330.061875 226.051875 330.061875 226.051875 330.125 227.125 C329.98331668 230.38371628 329.13265314 232.9559947 328 236 C327.34 236 326.68 236 326 236 C326 236.99 326 237.98 326 239 C325.34 239 324.68 239 324 239 C324 240.65 324 242.3 324 244 C323.34 244 322.68 244 322 244 C322 245.98 322 247.96 322 250 C321.34 250 320.68 250 320 250 C320 251.32 320 252.64 320 254 C319.34 254 318.68 254 318 254 C318 255.98 318 257.96 318 260 C317.34 260 316.68 260 316 260 C316 260.66 316 261.32 316 262 C315.34 262 314.68 262 314 262 C314 263.98 314 265.96 314 268 C313.34 268 312.68 268 312 268 C311.9175 269.27875 311.835 270.5575 311.75 271.875 C311.2438261 276.48841354 309.86010074 280.28652776 308.0390625 284.53125 C307.07052634 286.83243366 306.26144372 289.12362621 305.5 291.5 C303.51081107 297.6081073 301.22996033 303.58563342 298.3125 309.3125 C297.04018615 311.91771408 296.41994561 314.14436983 296 317 C295.34 317 294.68 317 294 317 C293.855625 317.7425 293.71125 318.485 293.5625 319.25 C293.09812508 321.52027739 292.58136431 323.75759479 292 326 C291.34 326 290.68 326 290 326 C290.0928125 326.9590625 290.0928125 326.9590625 290.1875 327.9375 C289.63387442 336.98005111 284.60359239 345.80153576 281 354 C280.34 354 279.68 354 279 354 C279 355.98 279 357.96 279 360 C278.34 360 277.68 360 277 360 C277 361.32 277 362.64 277 364 C276.34 364 275.68 364 275 364 C275 365.98 275 367.96 275 370 C274.34 370 273.68 370 273 370 C273.061875 371.1446875 273.061875 371.1446875 273.125 372.3125 C273 375 273 375 271 378 C270.34 378 269.68 378 269 378 C269 379.65 269 381.3 269 383 C268.34 383 267.68 383 267 383 C267 385.31 267 387.62 267 390 C266.34 390 265.68 390 265 390 C264.86722656 390.62648438 264.73445313 391.25296875 264.59765625 391.8984375 C264.42105469 392.71570313 264.24445313 393.53296875 264.0625 394.375 C263.88847656 395.18710937 263.71445312 395.99921875 263.53515625 396.8359375 C263 399 263 399 262 401 C261.34 401 260.68 401 260 401 C260.061875 402.5778125 260.061875 402.5778125 260.125 404.1875 C260.00852125 407.74010173 259.52791932 409.84866641 258 413 C257.34 413 256.68 413 256 413 C256.0825 413.639375 256.165 414.27875 256.25 414.9375 C255.82873211 420.09803164 253.68051532 425.31948468 250 429 C247.86129761 429.24050903 247.86129761 429.24050903 245.18310547 429.22705078 C244.18221893 429.22689972 243.1813324 429.22674866 242.15011597 429.22659302 C240.52506638 429.21110916 240.52506638 429.21110916 238.8671875 429.1953125 C237.76021515 429.1924826 236.6532428 429.18965271 235.51272583 429.18673706 C231.96670863 429.17551519 228.42094125 429.15040691 224.875 429.125 C222.47526406 429.1149728 220.07552417 429.1058465 217.67578125 429.09765625 C211.78376849 429.07556932 205.89190209 429.04207207 200 429 C200 428.34 200 427.68 200 427 C199.34 427 198.68 427 198 427 C197.01 423.535 197.01 423.535 196 420 C195.34 420 194.68 420 194 420 C193.72285156 419.00097656 193.44570312 418.00195312 193.16015625 416.97265625 C192.79444451 415.66922209 192.42854962 414.36583931 192.0625 413.0625 C191.88009766 412.40314453 191.69769531 411.74378906 191.50976562 411.06445312 C190.77403899 407.76178827 190.77403899 407.76178827 189 405 C188.95919217 403.00041636 188.95745644 400.99954746 189 399 C188.34 399 187.68 399 187 399 C187 398.34 187 397.68 187 397 C186.34 397 185.68 397 185 397 C183.57741188 393.17679443 182.75957724 390.08718695 183 386 C182.34 386 181.68 386 181 386 C181 382.04 181 378.08 181 374 C181.66 374 182.32 374 183 374 C183 373.34 183 372.68 183 372 C183.66 372 184.32 372 185 372 C185 371.34 185 370.68 185 370 C185.66 370 186.32 370 187 370 C187 369.34 187 368.68 187 368 C187.928125 367.938125 187.928125 367.938125 188.875 367.875 C189.926875 367.441875 189.926875 367.441875 191 367 C191.73080266 365.02253397 192.39421747 363.01927511 193 361 C194.5 359.125 194.5 359.125 196 358 C196.66 358 197.32 358 198 358 C198.144375 357.401875 198.28875 356.80375 198.4375 356.1875 C198.8872439 354.43849596 199.42892341 352.71322977 200 351 C200.66 351 201.32 351 202 351 C202.33 349.68 202.66 348.36 203 347 C203.66 347 204.32 347 205 347 C205.20625 346.071875 205.4125 345.14375 205.625 344.1875 C206.90996201 339.60633108 209.2903707 335.70002009 211.609375 331.57421875 C213.1242076 328.77007637 214.16178645 326.07344968 215 323 C215.33 321.9275 215.66 320.855 216 319.75 C216.33 318.5125 216.66 317.275 217 316 C217.17660156 315.35160156 217.35320312 314.70320313 217.53515625 314.03515625 C220.64370003 300.93321987 220.36779447 286.38771879 220 273 C219.99226563 271.74703125 219.99226563 271.74703125 219.984375 270.46875 C219.5519555 260.46132724 216.60047612 247.40071418 211 239 C211 238.01 211 237.02 211 236 C210.34 236 209.68 236 209 236 C209 234.68 209 233.36 209 232 C208.34 232 207.68 232 207 232 C206.54625 231.030625 206.0925 230.06125 205.625 229.0625 C204.34213779 225.92920418 204.34213779 225.92920418 202 225 C198 218.64705882 198 218.64705882 198 215 C197.01 215 196.02 215 195 215 C194.67 213.68 194.34 212.36 194 211 C193.34 211 192.68 211 192 211 C191.67 209.68 191.34 208.36 191 207 C190.34 207 189.68 207 189 207 C189 206.34 189 205.68 189 205 C188.38125 204.7525 187.7625 204.505 187.125 204.25 C184.64931313 202.79371361 184.04874998 201.62187494 183 199 C182.34 199 181.68 199 181 199 C181 198.34 181 197.68 181 197 C180.34 197 179.68 197 179 197 C179 196.34 179 195.68 179 195 C178.34 195 177.68 195 177 195 C177 194.34 177 193.68 177 193 C176.01 193 175.02 193 174 193 C174 192.34 174 191.68 174 191 C173.34 191 172.68 191 172 191 C170.375 189.625 170.375 189.625 169 188 C169 187.34 169 186.68 169 186 C168.01 186 167.02 186 166 186 C166 185.34 166 184.68 166 184 C165.34 184 164.68 184 164 184 C164 183.34 164 182.68 164 182 C163.4225 181.9175 162.845 181.835 162.25 181.75 C159.3774583 180.7924861 158.04910899 179.18571625 156 177 C155.34 176.67 154.68 176.34 154 176 C154 175.34 154 174.68 154 174 C152.35 173.34 150.7 172.68 149 172 C149 171.34 149 170.68 149 170 C148.34 170 147.68 170 147 170 C147 169.34 147 168.68 147 168 C146.01 168 145.02 168 144 168 C144 167.34 144 166.68 144 166 C141.03 165.01 141.03 165.01 138 164 C138 163.34 138 162.68 138 162 C137.34 162 136.68 162 136 162 C136 161.34 136 160.68 136 160 C135.34 160 134.68 160 134 160 C134 159.34 134 158.68 134 158 C132.68 158 131.36 158 130 158 C130 157.34 130 156.68 130 156 C128.68 156 127.36 156 126 156 C126 155.34 126 154.68 126 154 C125.34 154 124.68 154 124 154 C124 153.34 124 152.68 124 152 C122.35 151.67 120.7 151.34 119 151 C119 150.34 119 149.68 119 149 C118.44828125 148.89558594 117.8965625 148.79117188 117.328125 148.68359375 C114.50411491 147.85439616 112.27445084 146.5720035 109.75 145.0625 C108.85796875 144.53785156 107.9659375 144.01320312 107.046875 143.47265625 C106.37140625 142.98667969 105.6959375 142.50070313 105 142 C105 141.34 105 140.68 105 140 C104.01 140 103.02 140 102 140 C102 139.34 102 138.68 102 138 C101.2575 137.87625 100.515 137.7525 99.75 137.625 C97.19858515 137.04513299 95.2732427 136.26291261 93 135 C93 134.34 93 133.68 93 133 C91.02 132.34 89.04 131.68 87 131 C87 130.34 87 129.68 87 129 C85.68 129 84.36 129 83 129 C83 128.34 83 127.68 83 127 C82.41734375 126.88527344 81.8346875 126.77054687 81.234375 126.65234375 C78.83476865 125.95175938 77.27139067 125.01807405 75.25 123.5625 C74.63640625 123.13066406 74.0228125 122.69882813 73.390625 122.25390625 C72.70226562 121.63322266 72.70226562 121.63322266 72 121 C72 120.34 72 119.68 72 119 C70.68 119 69.36 119 68 119 C68 118.34 68 117.68 68 117 C66.68 117 65.36 117 64 117 C64 116.34 64 115.68 64 115 C63.319375 114.773125 62.63875 114.54625 61.9375 114.3125 C58.80836205 112.91437453 56.36076623 111.18909099 53.6484375 109.12109375 C51.87939685 107.80867708 51.87939685 107.80867708 49 107 C49 106.34 49 105.68 49 105 C48.34 105 47.68 105 47 105 C47 104.34 47 103.68 47 103 C46.34 103 45.68 103 45 103 C45 102.34 45 101.68 45 101 C43.68 101 42.36 101 41 101 C41 100.34 41 99.68 41 99 C40.01 99 39.02 99 38 99 C38 98.34 38 97.68 38 97 C36.68 96.67 35.36 96.34 34 96 C34 95.34 34 94.68 34 94 C33.41734375 93.89558594 32.8346875 93.79117188 32.234375 93.68359375 C29.66354577 92.89706383 28.2659942 91.82434109 26.25 90.0625 C25.63640625 89.53785156 25.0228125 89.01320313 24.390625 88.47265625 C23 87 23 87 23 85 C22.34 85 21.68 85 21 85 C21 84.34 21 83.68 21 83 C19.576875 82.5359375 19.576875 82.5359375 18.125 82.0625 C15 81 15 81 13 80 C13 79.34 13 78.68 13 78 C12.34 78 11.68 78 11 78 C11 77.34 11 76.68 11 76 C10.34 76 9.68 76 9 76 C9 75.34 9 74.68 9 74 C8.34 74 7.68 74 7 74 C7 73.34 7 72.68 7 72 C6.401875 71.71125 5.80375 71.4225 5.1875 71.125 C3 70 3 70 0 68 C0 66.68 0 65.36 0 64 C-0.66 64 -1.32 64 -2 64 C-2 43.54 -2 23.08 -2 2 C-1.34 2 -0.68 2 0 2 C0 1.34 0 0.68 0 0 Z " fill="#FEFEFE" transform="translate(22,25)"/>
<path d="M0 0 C0 0.66 0 1.32 0 2 C1.98 2.66 3.96 3.32 6 4 C6 4.66 6 5.32 6 6 C6.66 6 7.32 6 8 6 C8 6.66 8 7.32 8 8 C9.32 8 10.64 8 12 8 C12 8.66 12 9.32 12 10 C12.66 10 13.32 10 14 10 C14 10.66 14 11.32 14 12 C14.99 12 15.98 12 17 12 C17 12.66 17 13.32 17 14 C18.3303125 14.4021875 18.3303125 14.4021875 19.6875 14.8125 C27.26436782 17.52873563 27.26436782 17.52873563 29 21 C29.99 21.33 30.98 21.66 32 22 C32 22.66 32 23.32 32 24 C32.66 24 33.32 24 34 24 C34 24.66 34 25.32 34 26 C35.2684375 26.12375 35.2684375 26.12375 36.5625 26.25 C40.72113491 27.15733853 43.39582699 28.76541273 47 31 C47 31.66 47 32.32 47 33 C47.8353125 33.1546875 47.8353125 33.1546875 48.6875 33.3125 C53.49830778 34.74274015 57.37695838 37.94659788 61.3515625 40.9140625 C63.12801293 42.18590344 63.12801293 42.18590344 66 43 C66 43.66 66 44.32 66 45 C66.5775 45.103125 67.155 45.20625 67.75 45.3125 C70.35661158 46.10896465 71.9735311 47.19065277 74 49 C74 49.66 74 50.32 74 51 C75.65 51 77.3 51 79 51 C79 51.66 79 52.32 79 53 C79.680625 53.226875 80.36125 53.45375 81.0625 53.6875 C84.70759576 55.31615981 88.03166668 57.31094535 91 60 C92.31141858 63.93425575 92.12693714 67.67497058 92.10534668 71.77481079 C92.10454259 72.66845077 92.1037385 73.56209075 92.10291004 74.48281074 C92.09891021 77.44771951 92.08761721 80.41255273 92.07617188 83.37744141 C92.07161457 85.46606178 92.06742649 87.554683 92.063591 89.64330482 C92.04980847 96.09556962 92.0256875 102.54777326 92 109 C91.99286207 110.92195374 91.98575043 112.84390757 91.97866821 114.76586151 C91.93267772 126.85099166 91.86789424 138.93599039 91.79807091 151.02100325 C91.7691087 156.08297691 91.7416429 161.14495874 91.71398926 166.2069397 C91.66187496 175.7075176 91.60849849 185.20808793 91.5546174 194.70865595 C91.48154482 207.60684592 91.41052581 220.5050472 91.33936501 233.40324783 C91.2278734 253.60217459 91.11372805 273.80108543 91 294 C59.32 294 27.64 294 -5 294 C-5 293.34 -5 292.68 -5 292 C-5.66 292 -6.32 292 -7 292 C-7 195.97 -7 99.94 -7 1 C-4.53721199 -0.231394 -2.7204945 -0.07159196 0 0 Z " fill="#FEFEFE" transform="translate(27,162)"/>
<path d="M0 0 C2.31 0 4.62 0 7 0 C7 0.66 7 1.32 7 2 C7.763125 2.268125 8.52625 2.53625 9.3125 2.8125 C11.88988618 3.95134505 13.26954864 4.81416671 15 7 C15 7.66 15 8.32 15 9 C15.66 9 16.32 9 17 9 C17 9.66 17 10.32 17 11 C17.8353125 11.0928125 17.8353125 11.0928125 18.6875 11.1875 C21.99068042 12.3480769 23.71894733 14.40213446 26 17 C26 17.66 26 18.32 26 19 C26.99 19 27.98 19 29 19 C29 19.66 29 20.32 29 21 C29.66 21 30.32 21 31 21 C31 21.66 31 22.32 31 23 C31.66 23 32.32 23 33 23 C33 23.66 33 24.32 33 25 C33.66 25 34.32 25 35 25 C35 25.66 35 26.32 35 27 C35.66 27 36.32 27 37 27 C37 27.66 37 28.32 37 29 C37.66 29 38.32 29 39 29 C39 29.66 39 30.32 39 31 C39.66 31 40.32 31 41 31 C45 36.41176471 45 36.41176471 45 39 C45.66 39 46.32 39 47 39 C47 39.66 47 40.32 47 41 C47.66 41 48.32 41 49 41 C51.43160605 44.36683915 52 45.73350364 52 50 C53.32 50.66 54.64 51.32 56 52 C56 52.99 56 53.98 56 55 C56.66 55 57.32 55 58 55 C58 56.65 58 58.3 58 60 C58.66 60 59.32 60 60 60 C60 61.32 60 62.64 60 64 C60.66 64 61.32 64 62 64 C62.28875 65.0725 62.5775 66.145 62.875 67.25 C63.80232711 70.78528302 63.80232711 70.78528302 65.0625 73 C66.41745115 75.89056245 66.58459348 78.85477918 67 82 C67.33 82.33 67.66 82.66 68 83 C68.2108982 85.10019454 68.36877227 87.20582622 68.5 89.3125 C68.7199516 93.66115904 68.7199516 93.66115904 69.50927734 97.92236328 C70.03850104 100.16300689 70.12938032 102.14111334 70.1328125 104.44140625 C70.13410156 105.27220703 70.13539063 106.10300781 70.13671875 106.95898438 C70.13285156 107.81814453 70.12898438 108.67730469 70.125 109.5625 C70.12886719 110.42552734 70.13273437 111.28855469 70.13671875 112.17773438 C70.13542969 113.00724609 70.13414062 113.83675781 70.1328125 114.69140625 C70.13168457 115.44623291 70.13055664 116.20105957 70.12939453 116.97875977 C70 119 70 119 69 122 C68.69116784 125.64593517 68.49041441 129.29240545 68.28125 132.9453125 C68 136 68 136 67 137 C66.63239269 139.32817964 66.29758419 141.6618385 66 144 C65.34 144 64.68 144 64 144 C64 144.66 64 145.32 64 146 C63.34 146 62.68 146 62 146 C62 147.32 62 148.64 62 150 C59.6875 150.25 59.6875 150.25 57 150 C54.47075334 147.24312115 53.3397033 144.56531937 52.3125 141 C52.06113281 140.154375 51.80976563 139.30875 51.55078125 138.4375 C51 136 51 136 51 132 C50.34 132 49.68 132 49 132 C49 130.68 49 129.36 49 128 C48.34 128 47.68 128 47 128 C47 125.69 47 123.38 47 121 C46.34 121 45.68 121 45 121 C44.67386719 120.13117188 44.34773438 119.26234375 44.01171875 118.3671875 C43.57472656 117.21476562 43.13773438 116.06234375 42.6875 114.875 C42.25824219 113.73804688 41.82898438 112.60109375 41.38671875 111.4296875 C40.06319389 108.01261119 40.06319389 108.01261119 38.421875 104.90625 C37.06022064 102.12308834 36.27187535 99.62993161 35.5625 96.625 C34.4731256 92.39868362 33.03367333 88.869674 30.984375 85.0390625 C28.36028585 79.60344927 26.78543539 74.03999375 27 68 C26.34 68 25.68 68 25 68 C25 66.68 25 65.36 25 64 C24.34 64 23.68 64 23 64 C23 62.68 23 61.36 23 60 C22.34 60 21.68 60 21 60 C21 58.02 21 56.04 21 54 C20.34 54 19.68 54 19 54 C19 52.02 19 50.04 19 48 C18.34 48 17.68 48 17 48 C17 46.68 17 45.36 17 44 C16.34 44 15.68 44 15 44 C13.39644899 40.49223216 12.77963136 37.85645121 13 34 C12.34 34 11.68 34 11 34 C10.01388849 31.46083825 9.03599124 28.9189977 8.0625 26.375 C7.78470703 25.66214844 7.50691406 24.94929688 7.22070312 24.21484375 C5.67271388 20.14904068 4.54164048 16.34683625 4 12 C3.34 12 2.68 12 2 12 C0.40861915 7.82262526 -0.21278058 4.46839215 0 0 Z " fill="#FEFEFE" transform="translate(139,241)"/>
<path d="M0 0 C28.71 0 57.42 0 87 0 C87.495 1.485 87.495 1.485 88 3 C58.96 3 29.92 3 0 3 C0 2.01 0 1.02 0 0 Z " fill="#E0E0E0" transform="translate(26,453)"/>
</svg>
