<?xml version="1.0" encoding="UTF-8"?>
<svg xmlns="http://www.w3.org/2000/svg" xmlns:xlink="http://www.w3.org/1999/xlink" width="230px" height="38px" viewBox="0 0 229 38" version="1.1">
<defs>
<clipPath id="clip1">
  <path d="M 0.511719 0 L 26 0 L 26 37 L 0.511719 37 Z M 0.511719 0 "/>
</clipPath>
<clipPath id="clip2">
  <path d="M 191 0 L 228.488281 0 L 228.488281 37 L 191 37 Z M 191 0 "/>
</clipPath>
<clipPath id="clip3">
  <path d="M 0.511719 0 L 26 0 L 26 37 L 0.511719 37 Z M 0.511719 0 "/>
</clipPath>
<clipPath id="clip4">
  <path d="M 191 0 L 228.488281 0 L 228.488281 37 L 191 37 Z M 191 0 "/>
</clipPath>
</defs>
<g id="surface1">
<path style=" stroke:none;fill-rule:nonzero;fill:rgb(0%,0%,0%);fill-opacity:1;" d="M 174.144531 0 L 174.144531 29.699219 C 174.144531 31.59375 175.164062 32.613281 177.050781 32.757812 L 186.789062 32.757812 L 186.789062 36.105469 C 186.789062 36.542969 186.640625 36.691406 186.207031 36.691406 L 170.367188 36.691406 C 165.429688 36.691406 164.703125 33.921875 164.703125 31.59375 L 164.703125 2.039062 C 164.703125 0.582031 165.28125 0 166.882812 0 Z M 174.144531 0 "/>
<path style=" stroke:none;fill-rule:nonzero;fill:rgb(0%,0%,0%);fill-opacity:1;" d="M 155.839844 0 L 155.839844 34.796875 C 155.839844 36.398438 155.113281 36.691406 153.804688 36.691406 L 146.394531 36.691406 L 146.394531 1.894531 C 146.394531 0.726562 146.828125 0 148.429688 0 Z M 155.839844 0 "/>
<g clip-path="url(#clip1)" clip-rule="nonzero">
<path style=" stroke:none;fill-rule:nonzero;fill:rgb(0%,0%,0%);fill-opacity:1;" d="M 0.511719 5.097656 C 0.511719 2.328125 0.511719 0 5.160156 0 L 25.359375 0 L 25.359375 3.496094 C 25.359375 3.785156 25.210938 3.929688 24.921875 3.929688 C 24.921875 3.929688 12.863281 3.929688 12.863281 3.929688 C 11.261719 3.929688 10.390625 4.660156 10.390625 6.40625 L 10.390625 15.722656 L 24.632812 15.722656 L 24.632812 19.363281 C 24.632812 19.65625 24.484375 19.800781 24.050781 19.800781 L 10.246094 19.800781 L 10.246094 34.652344 C 10.246094 36.105469 9.519531 36.691406 7.921875 36.691406 L 0.511719 36.691406 Z M 0.511719 5.097656 "/>
</g>
<path style=" stroke:none;fill-rule:nonzero;fill:rgb(0%,0%,0%);fill-opacity:1;" d="M 39.886719 0 L 39.886719 27.953125 C 39.886719 30.429688 40.179688 32.03125 41.921875 33.050781 C 44.246094 34.359375 48.023438 34.359375 50.347656 33.050781 C 51.949219 32.175781 52.527344 30.71875 52.527344 27.953125 L 52.527344 1.746094 C 52.527344 0.582031 52.964844 -0.144531 54.5625 -0.144531 L 61.828125 -0.144531 L 61.828125 27.082031 C 61.828125 33.339844 57.90625 35.960938 54.417969 36.980469 C 49.769531 38.292969 42.648438 38.292969 38.289062 36.980469 C 33.058594 35.378906 30.589844 32.320312 30.589844 27.082031 L 30.589844 1.746094 C 30.589844 0.582031 31.023438 -0.144531 32.476562 -0.144531 L 39.886719 -0.144531 Z M 39.886719 0 "/>
<g clip-path="url(#clip2)" clip-rule="nonzero">
<path style=" stroke:none;fill-rule:nonzero;fill:rgb(0%,0%,0%);fill-opacity:1;" d="M 217.589844 0 C 215.703125 0 214.683594 0.875 214.25 2.476562 L 208.292969 27.808594 L 208.148438 27.808594 L 201.898438 0 L 193.472656 0 C 191.871094 0 191.292969 0.875 191.292969 2.183594 L 191.292969 36.835938 L 194.925781 36.835938 C 195.503906 36.835938 195.796875 36.542969 195.796875 35.960938 L 195.796875 6.84375 L 196.378906 6.84375 L 204.078125 36.691406 L 209.019531 36.691406 C 210.90625 36.691406 211.632812 35.960938 212.070312 34.070312 L 218.898438 6.84375 L 219.480469 6.84375 L 219.480469 36.691406 L 226.164062 36.691406 C 227.761719 36.691406 228.488281 36.105469 228.488281 34.503906 L 228.488281 0 Z M 217.589844 0 "/>
</g>
<path style=" stroke:none;fill-rule:nonzero;fill:rgb(0%,0%,0%);fill-opacity:1;" d="M 106.4375 19.945312 L 96.992188 19.945312 L 96.992188 36.691406 L 104.402344 36.691406 C 105.710938 36.691406 106.4375 36.253906 106.4375 34.796875 C 106.4375 34.796875 106.4375 27.664062 106.4375 19.945312 "/>
<path style=" stroke:none;fill-rule:nonzero;fill:rgb(92.941176%,10.196078%,23.137255%);fill-opacity:1;" d="M 106 12.8125 C 106.289062 12.519531 106.582031 12.375 106.582031 11.792969 L 106.582031 0 L 99.316406 0 C 97.71875 0 97.28125 0.875 97.28125 1.894531 L 97.28125 19.65625 Z M 106 12.8125 "/>
<path style=" stroke:none;fill-rule:nonzero;fill:rgb(0%,0%,0%);fill-opacity:1;" d="M 73.742188 33.777344 C 77.8125 33.195312 79.121094 30.71875 79.121094 27.226562 L 79.121094 2.039062 C 79.121094 0.582031 79.992188 0 81.007812 0 L 88.5625 0 L 88.5625 23.878906 C 88.5625 29.699219 87.402344 32.757812 83.914062 35.234375 C 82.171875 36.542969 78.972656 38 72.144531 38 C 68.222656 38 66.476562 37.707031 66.1875 37.707031 C 65.898438 37.5625 65.75 37.417969 65.75 37.125 L 65.75 34.070312 C 67.351562 34.070312 70.980469 34.214844 73.742188 33.777344 "/>
<path style=" stroke:none;fill-rule:nonzero;fill:rgb(0%,0%,0%);fill-opacity:1;" d="M 120.675781 0 C 116.027344 0 116.027344 2.328125 116.027344 5.097656 L 116.027344 14.558594 C 116.027344 14.703125 115.878906 14.851562 115.878906 14.851562 L 109.488281 19.945312 L 116.027344 19.945312 L 116.027344 36.691406 L 123.4375 36.691406 C 125.035156 36.691406 125.761719 36.105469 125.761719 34.652344 L 125.761719 19.945312 L 139.417969 19.945312 C 139.710938 19.945312 140 19.800781 140 19.507812 L 140 15.871094 L 125.761719 15.871094 L 125.761719 6.40625 C 125.761719 4.804688 126.632812 3.929688 128.230469 3.929688 C 128.230469 3.929688 140.289062 3.929688 140.289062 3.929688 C 140.582031 3.929688 140.726562 3.640625 140.726562 3.496094 L 140.726562 0 Z M 120.675781 0 "/>
<path style=" stroke:none;fill-rule:nonzero;fill:rgb(0%,0%,0%);fill-opacity:1;" d="M 174.144531 0 L 174.144531 29.699219 C 174.144531 31.59375 175.164062 32.613281 177.050781 32.757812 L 186.789062 32.757812 L 186.789062 36.105469 C 186.789062 36.542969 186.640625 36.691406 186.207031 36.691406 L 170.367188 36.691406 C 165.429688 36.691406 164.703125 33.921875 164.703125 31.59375 L 164.703125 2.039062 C 164.703125 0.582031 165.28125 0 166.882812 0 Z M 174.144531 0 "/>
<path style=" stroke:none;fill-rule:nonzero;fill:rgb(0%,0%,0%);fill-opacity:1;" d="M 155.839844 0 L 155.839844 34.796875 C 155.839844 36.398438 155.113281 36.691406 153.804688 36.691406 L 146.394531 36.691406 L 146.394531 1.894531 C 146.394531 0.726562 146.828125 0 148.429688 0 Z M 155.839844 0 "/>
<g clip-path="url(#clip3)" clip-rule="nonzero">
<path style=" stroke:none;fill-rule:nonzero;fill:rgb(0%,0%,0%);fill-opacity:1;" d="M 0.511719 5.097656 C 0.511719 2.328125 0.511719 0 5.160156 0 L 25.359375 0 L 25.359375 3.496094 C 25.359375 3.785156 25.210938 3.929688 24.921875 3.929688 C 24.921875 3.929688 12.863281 3.929688 12.863281 3.929688 C 11.261719 3.929688 10.390625 4.660156 10.390625 6.40625 L 10.390625 15.722656 L 24.632812 15.722656 L 24.632812 19.363281 C 24.632812 19.65625 24.484375 19.800781 24.050781 19.800781 L 10.246094 19.800781 L 10.246094 34.652344 C 10.246094 36.105469 9.519531 36.691406 7.921875 36.691406 L 0.511719 36.691406 Z M 0.511719 5.097656 "/>
</g>
<path style=" stroke:none;fill-rule:nonzero;fill:rgb(0%,0%,0%);fill-opacity:1;" d="M 39.886719 0 L 39.886719 27.953125 C 39.886719 30.429688 40.179688 32.03125 41.921875 33.050781 C 44.246094 34.359375 48.023438 34.359375 50.347656 33.050781 C 51.949219 32.175781 52.527344 30.71875 52.527344 27.953125 L 52.527344 1.746094 C 52.527344 0.582031 52.964844 -0.144531 54.5625 -0.144531 L 61.828125 -0.144531 L 61.828125 27.082031 C 61.828125 33.339844 57.90625 35.960938 54.417969 36.980469 C 49.769531 38.292969 42.648438 38.292969 38.289062 36.980469 C 33.058594 35.378906 30.589844 32.320312 30.589844 27.082031 L 30.589844 1.746094 C 30.589844 0.582031 31.023438 -0.144531 32.476562 -0.144531 L 39.886719 -0.144531 Z M 39.886719 0 "/>
<g clip-path="url(#clip4)" clip-rule="nonzero">
<path style=" stroke:none;fill-rule:nonzero;fill:rgb(0%,0%,0%);fill-opacity:1;" d="M 217.589844 0 C 215.703125 0 214.683594 0.875 214.25 2.476562 L 208.292969 27.808594 L 208.148438 27.808594 L 201.898438 0 L 193.472656 0 C 191.871094 0 191.292969 0.875 191.292969 2.183594 L 191.292969 36.835938 L 194.925781 36.835938 C 195.503906 36.835938 195.796875 36.542969 195.796875 35.960938 L 195.796875 6.84375 L 196.378906 6.84375 L 204.078125 36.691406 L 209.019531 36.691406 C 210.90625 36.691406 211.632812 35.960938 212.070312 34.070312 L 218.898438 6.84375 L 219.480469 6.84375 L 219.480469 36.691406 L 226.164062 36.691406 C 227.761719 36.691406 228.488281 36.105469 228.488281 34.503906 L 228.488281 0 Z M 217.589844 0 "/>
</g>
<path style=" stroke:none;fill-rule:nonzero;fill:rgb(0%,0%,0%);fill-opacity:1;" d="M 106.4375 19.945312 L 96.992188 19.945312 L 96.992188 36.691406 L 104.402344 36.691406 C 105.710938 36.691406 106.4375 36.253906 106.4375 34.796875 C 106.582031 34.796875 106.4375 27.664062 106.4375 19.945312 "/>
<path style=" stroke:none;fill-rule:nonzero;fill:rgb(92.941176%,10.196078%,23.137255%);fill-opacity:1;" d="M 106 12.8125 C 106.289062 12.519531 106.582031 12.375 106.582031 11.792969 L 106.582031 0 L 99.316406 0 C 97.71875 0 97.28125 0.875 97.28125 1.894531 L 97.28125 19.65625 Z M 106 12.8125 "/>
<path style=" stroke:none;fill-rule:nonzero;fill:rgb(0%,0%,0%);fill-opacity:1;" d="M 73.742188 33.777344 C 77.8125 33.195312 79.121094 30.71875 79.121094 27.226562 L 79.121094 2.039062 C 79.121094 0.582031 79.992188 0 81.007812 0 L 88.5625 0 L 88.5625 23.878906 C 88.5625 29.699219 87.402344 32.757812 83.914062 35.234375 C 82.171875 36.542969 78.972656 38 72.144531 38 C 68.222656 38 66.476562 37.707031 66.1875 37.707031 C 65.898438 37.5625 65.75 37.417969 65.75 37.125 L 65.75 34.070312 C 67.351562 34.070312 70.980469 34.214844 73.742188 33.777344 "/>
<path style=" stroke:none;fill-rule:nonzero;fill:rgb(0%,0%,0%);fill-opacity:1;" d="M 120.675781 0 C 116.027344 0 116.027344 2.328125 116.027344 5.097656 L 116.027344 14.558594 C 116.027344 14.703125 115.878906 14.851562 115.878906 14.851562 L 109.488281 19.945312 L 116.027344 19.945312 L 116.027344 36.691406 L 123.4375 36.691406 C 125.035156 36.691406 125.761719 36.105469 125.761719 34.652344 L 125.761719 19.945312 L 139.417969 19.945312 C 139.710938 19.945312 140 19.800781 140 19.507812 L 140 15.871094 L 125.761719 15.871094 L 125.761719 6.40625 C 125.761719 4.804688 126.632812 3.929688 128.230469 3.929688 C 128.230469 3.929688 140.289062 3.929688 140.289062 3.929688 C 140.582031 3.929688 140.726562 3.640625 140.726562 3.496094 L 140.726562 0 Z M 120.675781 0 "/>
</g>
</svg>
